<svg width="24" height="24" viewBox="0 0 24 24" fill="none" xmlns="http://www.w3.org/2000/svg">
<path d="M21.77 8.94835C21.6069 8.89001 21.4577 8.79806 21.3323 8.67845C21.2069 8.55884 21.1081 8.41423 21.0421 8.25398C20.9761 8.09374 20.9445 7.92143 20.9493 7.7482C20.9541 7.57497 20.9953 7.40468 21.07 7.24835C21.357 6.64441 21.4501 5.96644 21.3364 5.30751C21.2227 4.64858 20.9079 4.04098 20.4351 3.56811C19.9624 3.09524 19.3548 2.78027 18.6959 2.66644C18.037 2.55261 17.3591 2.6455 16.755 2.93235C16.5987 3.00698 16.4284 3.04798 16.2552 3.05272C16.0821 3.05746 15.9098 3.02583 15.7496 2.95986C15.5894 2.8939 15.4448 2.79507 15.3252 2.66976C15.2055 2.54444 15.1135 2.39543 15.055 2.23235C14.8302 1.60343 14.4165 1.05938 13.8705 0.67472C13.3245 0.290057 12.6729 0.0835876 12.005 0.0835876C11.3372 0.0835876 10.6856 0.290057 10.1396 0.67472C9.59359 1.05938 9.17985 1.60343 8.95504 2.23235C8.8967 2.39553 8.80475 2.54464 8.68514 2.67004C8.56553 2.79544 8.42092 2.89433 8.26068 2.96032C8.10043 3.0263 7.92812 3.05791 7.75489 3.05309C7.58166 3.04827 7.41137 3.00714 7.25504 2.93235C6.65072 2.64322 5.97161 2.54859 5.31126 2.6615C4.65092 2.77441 4.04183 3.0893 3.5679 3.56279C3.09397 4.03628 2.77852 4.64508 2.665 5.30532C2.55148 5.96556 2.64548 6.64476 2.93404 7.24935C3.00899 7.40565 3.05025 7.57596 3.05515 7.74924C3.06005 7.92251 3.02847 8.09488 2.96247 8.25517C2.89647 8.41546 2.79752 8.56009 2.67203 8.67967C2.54654 8.79926 2.39732 8.89114 2.23404 8.94935C1.60557 9.17461 1.06203 9.58852 0.67776 10.1345C0.293489 10.6804 0.0872498 11.3317 0.0872498 11.9993C0.0872498 12.667 0.293489 13.3183 0.67776 13.8642C1.06203 14.4102 1.60557 14.8241 2.23404 15.0494C2.39766 15.1072 2.5473 15.1988 2.67324 15.3181C2.79919 15.4375 2.89862 15.5821 2.9651 15.7424C3.03158 15.9027 3.06361 16.0751 3.05912 16.2486C3.05463 16.4221 3.01372 16.5927 2.93904 16.7494C2.65188 17.3529 2.55854 18.0306 2.67182 18.6893C2.78511 19.348 3.09947 19.9555 3.57177 20.4285C4.04407 20.9015 4.65116 21.2167 5.30973 21.3309C5.9683 21.4451 6.64608 21.3527 7.25004 21.0664C7.40637 20.9916 7.57666 20.9504 7.74989 20.9456C7.92312 20.9408 8.09543 20.9724 8.25568 21.0384C8.41592 21.1044 8.56053 21.2033 8.68014 21.3287C8.79975 21.4541 8.8917 21.6032 8.95004 21.7664C9.17485 22.3953 9.58859 22.9393 10.1346 23.324C10.6806 23.7086 11.3322 23.9151 12 23.9151C12.6679 23.9151 13.3195 23.7086 13.8655 23.324C14.4115 22.9393 14.8252 22.3953 15.05 21.7664C15.1084 21.6032 15.2003 21.4541 15.3199 21.3287C15.4396 21.2033 15.5842 21.1044 15.7444 21.0384C15.9047 20.9724 16.077 20.9408 16.2502 20.9456C16.4234 20.9504 16.5937 20.9916 16.75 21.0664C17.354 21.3533 18.032 21.4464 18.6909 21.3327C19.3498 21.219 19.9574 20.9042 20.4303 20.4314C20.9032 19.9587 21.2181 19.3512 21.332 18.6923C21.4458 18.0333 21.3529 17.3554 21.066 16.7514C20.9914 16.595 20.9504 16.4247 20.9457 16.2515C20.9409 16.0784 20.9726 15.9061 21.0385 15.7459C21.1045 15.5857 21.2033 15.4411 21.3286 15.3215C21.4539 15.2018 21.603 15.1098 21.766 15.0514C22.395 14.8265 22.939 14.4128 23.3237 13.8668C23.7083 13.3208 23.9148 12.6692 23.9148 12.0014C23.9148 11.3335 23.7083 10.6819 23.3237 10.1359C22.939 9.5899 22.395 9.17616 21.766 8.95135L21.77 8.94835ZM21.1 13.1674C20.6731 13.3192 20.2828 13.559 19.9543 13.8711C19.6258 14.1833 19.3665 14.5609 19.1931 14.9795C19.0196 15.3982 18.936 15.8485 18.9475 16.3015C18.9591 16.7545 19.0655 17.2001 19.26 17.6094C19.3701 17.8405 19.4059 18.1001 19.3624 18.3524C19.3189 18.6047 19.1983 18.8374 19.0172 19.0184C18.8361 19.1994 18.6034 19.3198 18.3511 19.3632C18.0987 19.4065 17.8391 19.3706 17.608 19.2604C17.1988 19.0659 16.7534 18.9594 16.3004 18.9479C15.8475 18.9363 15.3972 19.02 14.9786 19.1934C14.5601 19.3668 14.1825 19.6262 13.8705 19.9547C13.5584 20.2831 13.3188 20.6734 13.167 21.1004C13.0816 21.3416 12.9235 21.5504 12.7146 21.6981C12.5056 21.8458 12.256 21.9251 12 21.9251C11.7441 21.9251 11.4945 21.8458 11.2855 21.6981C11.0765 21.5504 10.9185 21.3416 10.833 21.1004C10.6811 20.6735 10.4412 20.2833 10.1291 19.9549C9.81688 19.6265 9.4393 19.3672 9.02069 19.1938C8.60209 19.0204 8.15177 18.9367 7.69881 18.9482C7.24586 18.9597 6.80034 19.066 6.39104 19.2604C6.15991 19.3701 5.90048 19.4056 5.64837 19.3619C5.39626 19.3183 5.16384 19.1977 4.98303 19.0167C4.80222 18.8356 4.68189 18.6031 4.63856 18.3509C4.59523 18.0987 4.63103 17.8393 4.74104 17.6084C4.93552 17.1991 5.04193 16.7536 5.05339 16.3006C5.06486 15.8476 4.98112 15.3973 4.8076 14.9787C4.63408 14.5601 4.37463 14.1826 4.04604 13.8706C3.71746 13.5586 3.32704 13.319 2.90004 13.1674C2.65926 13.0815 2.45094 12.9232 2.30363 12.7143C2.15633 12.5054 2.07725 12.256 2.07725 12.0003C2.07725 11.7447 2.15633 11.4953 2.30363 11.2864C2.45094 11.0775 2.65926 10.9192 2.90004 10.8334C3.32718 10.6818 3.71772 10.4422 4.04638 10.13C4.37504 9.81794 4.63449 9.4403 4.80794 9.02157C4.98139 8.60283 5.06498 8.15234 5.05328 7.69925C5.04158 7.24616 4.93487 6.80058 4.74004 6.39135C4.63017 6.16028 4.59453 5.90087 4.63801 5.64873C4.68149 5.3966 4.80197 5.16411 4.98288 4.98319C5.1638 4.80227 5.39629 4.6818 5.64843 4.63832C5.90056 4.59484 6.15998 4.63048 6.39104 4.74035C6.80032 4.93485 7.24586 5.04132 7.69886 5.05286C8.15185 5.06439 8.60223 4.98075 9.02088 4.80734C9.43953 4.63392 9.81713 4.37459 10.1293 4.0461C10.4414 3.71762 10.6812 3.32729 10.833 2.90035C10.9185 2.65912 11.0765 2.45028 11.2855 2.30258C11.4945 2.15488 11.7441 2.07557 12 2.07557C12.256 2.07557 12.5056 2.15488 12.7146 2.30258C12.9235 2.45028 13.0816 2.65912 13.167 2.90035C13.3189 3.32729 13.5587 3.71762 13.8708 4.0461C14.183 4.37459 14.5606 4.63392 14.9792 4.80734C15.3979 4.98075 15.8482 5.06439 16.3012 5.05286C16.7542 5.04132 17.1998 4.93485 17.609 4.74035C17.8402 4.63027 18.0998 4.59452 18.3521 4.638C18.6044 4.68148 18.8371 4.80206 19.0181 4.98316C19.1991 5.16426 19.3195 5.39699 19.3628 5.64933C19.4062 5.90168 19.3703 6.16125 19.26 6.39235C19.0655 6.80155 18.9591 7.24702 18.9476 7.69995C18.936 8.15288 19.0197 8.60319 19.1931 9.02176C19.3665 9.44033 19.6259 9.81785 19.9543 10.1299C20.2828 10.442 20.6731 10.6816 21.1 10.8334C21.3413 10.9188 21.5501 11.0768 21.6978 11.2858C21.8455 11.4948 21.9248 11.7444 21.9248 12.0003C21.9248 12.2563 21.8455 12.5059 21.6978 12.7149C21.5501 12.9239 21.3413 13.0819 21.1 13.1674Z" fill="#374957"/>
<path d="M9.18819 11.009L10.7665 14.9718L10.0834 15.2439L7.17542 13.113L8.30605 15.9518L7.62289 16.2239L6.04456 12.261L6.72772 11.9889L9.64327 14.1231L8.51047 11.2789L9.18819 11.009ZM13.9584 13.073L14.1742 13.6146L12.0702 14.4526L11.8545 13.911L13.9584 13.073ZM10.6852 10.4127L12.2635 14.3756L11.5803 14.6477L10.002 10.6848L10.6852 10.4127ZM12.98 11.4161L13.1925 11.9495L11.3635 12.678L11.151 12.1445L12.98 11.4161ZM12.5822 9.65718L12.799 10.2015L10.7087 11.0341L10.4919 10.4897L12.5822 9.65718ZM15.3711 12.1067L14.9365 8.7195L15.3503 8.55473L15.6194 9.36519L16.0386 12.8721L15.6085 13.0434L15.3711 12.1067ZM13.5566 9.2691L15.4103 12.0627L15.8317 12.9545L15.3745 13.1366L12.8789 9.53902L13.5566 9.2691ZM17.4566 11.2383L16.8772 7.9466L17.5576 7.67559L18.2187 12.0038L17.7614 12.1859L17.4566 11.2383ZM15.5108 8.49078L17.5191 11.2607L17.9846 12.097L17.5546 12.2683L15.4616 9.42807L15.1026 8.65338L15.5108 8.49078Z" fill="black"/>
</svg>
