<svg width="30" height="30" viewBox="0 0 30 30" fill="none"  xmlns="http://www.w3.org/2000/svg">
<g clip-path="url(#clip0_2_27)">
<path d="M11.25 14.9999C12.7334 14.9999 14.1834 14.5601 15.4168 13.736C16.6501 12.9119 17.6114 11.7405 18.1791 10.3701C18.7468 8.99962 18.8953 7.49162 18.6059 6.03677C18.3165 4.58191 17.6022 3.24554 16.5533 2.19664C15.5044 1.14775 14.168 0.433442 12.7132 0.144053C11.2583 -0.145336 9.75032 0.00318861 8.37987 0.570846C7.00943 1.1385 5.83809 2.0998 5.01398 3.33317C4.18987 4.56653 3.75 6.01658 3.75 7.49994C3.75199 9.48846 4.5428 11.395 5.94889 12.8011C7.35498 14.2071 9.26149 14.998 11.25 14.9999ZM11.25 2.49994C12.2389 2.49994 13.2056 2.79319 14.0279 3.34259C14.8501 3.892 15.491 4.67289 15.8694 5.58653C16.2478 6.50016 16.3469 7.50549 16.1539 8.47539C15.961 9.4453 15.4848 10.3362 14.7855 11.0355C14.0863 11.7347 13.1954 12.2109 12.2255 12.4039C11.2555 12.5968 10.2502 12.4978 9.33658 12.1193C8.42295 11.7409 7.64206 11.1 7.09265 10.2778C6.54324 9.45555 6.25 8.48885 6.25 7.49994C6.25 6.17386 6.77678 4.90209 7.71447 3.96441C8.65215 3.02673 9.92392 2.49994 11.25 2.49994Z" fill="#374957"/>
<path d="M11.25 17.4996C8.26743 17.5032 5.40806 18.6897 3.29907 20.7987C1.19007 22.9077 0.00363869 25.767 0 28.7496C0 29.0811 0.131696 29.399 0.366117 29.6335C0.600537 29.8679 0.918479 29.9996 1.25 29.9996C1.58152 29.9996 1.89946 29.8679 2.13388 29.6335C2.3683 29.399 2.5 29.0811 2.5 28.7496C2.5 26.4289 3.42187 24.2033 5.06282 22.5624C6.70376 20.9215 8.92936 19.9996 11.25 19.9996C13.5706 19.9996 15.7962 20.9215 17.4372 22.5624C19.0781 24.2033 20 26.4289 20 28.7496C20 29.0811 20.1317 29.399 20.3661 29.6335C20.6005 29.8679 20.9185 29.9996 21.25 29.9996C21.5815 29.9996 21.8995 29.8679 22.1339 29.6335C22.3683 29.399 22.5 29.0811 22.5 28.7496C22.4964 25.767 21.3099 22.9077 19.2009 20.7987C17.0919 18.6897 14.2326 17.5032 11.25 17.4996Z" fill="#374957"/>
<path d="M27.4999 9.84375C26.8042 9.8784 26.1506 10.1872 25.6821 10.7026C25.2136 11.218 24.9683 11.898 24.9999 12.5938C25.0315 11.898 24.7862 11.218 24.3177 10.7026C23.8491 10.1872 23.1955 9.8784 22.4999 9.84375C21.8042 9.8784 21.1507 10.1872 20.6821 10.7026C20.2136 11.218 19.9683 11.898 19.9999 12.5938C19.9999 14.7563 22.8199 17.29 24.2249 18.4175C24.4448 18.5936 24.7182 18.6895 24.9999 18.6895C25.2816 18.6895 25.555 18.5936 25.7749 18.4175C27.1799 17.2925 29.9999 14.7563 29.9999 12.5938C30.0315 11.898 29.7862 11.218 29.3177 10.7026C28.8491 10.1872 28.1955 9.8784 27.4999 9.84375Z" fill="#374957"/>
</g>
<defs>
<clipPath id="clip0_2_27">
<rect width="30" height="30" fill="white"/>
</clipPath>
</defs>
</svg>
