<svg width="39" height="39" viewBox="0 0 39 39" fill="none" xmlns="http://www.w3.org/2000/svg">
<g clip-path="url(#clip0_2_35)">
<path d="M27.932 32.039C25.9593 32.7607 23.8571 33.0608 21.7612 32.9198C19.6654 32.7789 17.6223 32.2001 15.7639 31.2207C13.895 30.2433 12.2552 28.8797 10.9535 27.2202C9.65173 25.5608 8.71776 23.6435 8.21354 21.5955C7.44099 18.4039 7.72617 15.0477 9.02615 12.0322C10.3261 9.01665 12.5706 6.50505 15.4215 4.87551C17.2753 3.8514 19.3106 3.19774 21.414 2.95098C21.9681 2.89539 22.527 2.98887 23.0328 3.22175C23.5387 3.45463 23.9731 3.81845 24.2911 4.27556C24.6092 4.73267 24.7993 5.26647 24.8418 5.82171C24.8844 6.37696 24.7778 6.93348 24.533 7.4337C20.9744 14.2853 24.2269 21.7173 31.6815 23.9977C32.2127 24.1702 32.688 24.4819 33.0579 24.9004C33.4278 25.3189 33.6788 25.8288 33.7847 26.3772C33.8906 26.9256 33.8477 27.4923 33.6603 28.0185C33.4729 28.5446 33.1479 29.0109 32.7192 29.3688C31.2749 30.5067 29.659 31.4079 27.932 32.039V32.039ZM18.5534 6.18745C17.8939 6.42749 17.2542 6.71863 16.64 7.0582C14.2661 8.41428 12.397 10.5048 11.3139 13.015C10.2309 15.5251 9.99252 18.3192 10.6347 20.9766C11.0542 22.6868 11.8328 24.2882 12.9189 25.6742C14.0049 27.0603 15.3736 28.1993 16.9338 29.0157C19.1975 30.1556 21.7435 30.614 24.2627 30.3354C26.7819 30.0568 29.1661 29.0531 31.126 27.446C31.2096 27.3742 31.2727 27.2816 31.3089 27.1776C31.3451 27.0735 31.3532 26.9617 31.3323 26.8536C31.3115 26.7454 31.2624 26.6447 31.19 26.5616C31.1176 26.4785 31.0246 26.416 30.9203 26.3804C22.035 23.6767 18.036 14.4814 22.2985 6.3106C22.3469 6.21551 22.3679 6.10879 22.359 6.00245C22.3501 5.89611 22.3117 5.79436 22.2482 5.70862C22.1864 5.61556 22.1003 5.54117 21.9993 5.4935C21.8983 5.44583 21.7861 5.4267 21.675 5.43817C20.6081 5.56118 19.5599 5.81277 18.5534 6.18745V6.18745Z" fill="#374957"/>
</g>
<defs>
<clipPath id="clip0_2_35">
<rect width="30" height="30" fill="white" transform="translate(0 10.3286) rotate(-20.1381)"/>
</clipPath>
</defs>
</svg>
